<svg id="圖層_1" data-name="圖層 1" xmlns="http://www.w3.org/2000/svg" viewBox="0 0 32 32"><defs><style>.cls-1{fill:#26234d;}.cls-2{fill:#94c49c;}.cls-3{fill:#fff;}</style></defs><rect class="cls-1" width="32" height="32" rx="4.16"/><path class="cls-2" d="M17.3,15.19H16.11a.18.18,0,0,0-.18.19V27.28a.19.19,0,0,0,.18.19H20a.2.2,0,0,0,.19-.19v-9a3.08,3.08,0,0,0-2.91-3.08"/><path class="cls-2" d="M8.79,8.18H4.88a.18.18,0,0,0-.18.19V27.28a.19.19,0,0,0,.18.19H8.79A.2.2,0,0,0,9,27.28V8.37a.19.19,0,0,0-.19-.19"/><path class="cls-2" d="M14.41,14.61H10.5a.18.18,0,0,0-.19.18V27.28a.19.19,0,0,0,.19.19h3.91a.19.19,0,0,0,.18-.19V14.79a.18.18,0,0,0-.18-.18"/><g id="圖層_2" data-name="圖層 2"><g id="圖層_1-2" data-name="圖層 1-2"><path class="cls-3" d="M28.89,7.93l-.27-.28-.61.6L26.9,7.5l-1.15.78h-.6a1.22,1.22,0,0,0-.1-.24l.43-.43,1.36-.25L27.09,6H28V5.65h-.78V4.88h-.38v.85L25.47,6,25.2,7.35l-.42.42a1.22,1.22,0,0,0-.24-.1v-.6l.78-1.15-.75-1.11.6-.6-.28-.28-.54.55-.55-.55-.27.28.6.6-.76,1.11.78,1.15v.6a.94.94,0,0,0-.23.1l-.43-.42L23.23,6l-1.32-.25V4.88h-.39v.77h-.77V6h.85l.25,1.32,1.37.26.43.42a.82.82,0,0,0-.1.24h-.61L21.79,7.5l-1.11.75-.6-.6-.27.28.54.54L19.81,9l.27.27.6-.6,1.11.76,1.15-.78h.61a.67.67,0,0,0,.1.23l-.43.43-1.37.26-.25,1.32h-.85v.39h.77v.77h.39v-.85L23.23,11l.26-1.37.43-.42a.92.92,0,0,0,.23.09v.61L23.37,11l.76,1.11-.6.6.27.27.55-.54.54.55.28-.28-.6-.6L25.32,11l-.78-1.15V9.27a1.17,1.17,0,0,0,.24-.09l.43.42L25.47,11l1.32.25v.85h.38V11.3H28v-.39H27.1l-.26-1.32-1.36-.26-.43-.43a.94.94,0,0,0,.1-.23h.6l1.15.78L28,8.69l.61.6L28.89,9l-.55-.55ZM25.8,6.31l.88-.17L26.51,7l-.88.17ZM24.35,5.17l.51.75-.51.75-.51-.75ZM22.18,7,22,6.14l.89.17.17.89Zm-.39,2L21,8.47,21.79,8l.75.51Zm1.11,1.66-.89.17.17-.89.89-.17Zm1.45,1.14L23.84,11l.5-.75.51.75Zm0-2.87a.44.44,0,1,1,.44-.44.44.44,0,0,1-.44.44Zm2.16,1,.17.89-.88-.17-.17-.89ZM26.9,9l-.75-.5L26.9,8l.75.51Z"/></g></g></svg>