<svg xmlns="http://www.w3.org/2000/svg" viewBox="0 0 512 512"><defs><style>.cls-1{fill:#26234d;}.cls-2{fill:#94c49c;}.cls-3{fill:#fff;}</style></defs><g id="圖層_2" data-name="圖層 2"><g id="圖層_1-2" data-name="圖層 1"><rect class="cls-1" width="512" height="512" rx="66.62"/><path class="cls-2" d="M276.73,243.05q-1.46-.11-2.49-.12H257.79a2.94,2.94,0,0,0-3,2.92V436.53a3,3,0,0,0,3,2.94h62.58a2.94,2.94,0,0,0,2.94-2.94V292.28a49.33,49.33,0,0,0-46.58-49.23"/><path class="cls-2" d="M140.69,130.92H78.09a2.94,2.94,0,0,0-2.93,2.94V436.52a2.94,2.94,0,0,0,2.93,2.94h62.6a2.94,2.94,0,0,0,2.94-2.94V133.86a2.94,2.94,0,0,0-2.94-2.94"/><path class="cls-2" d="M230.53,233.77H167.94a2.94,2.94,0,0,0-2.94,2.94V436.53a2.94,2.94,0,0,0,2.94,2.94h62.59a2.94,2.94,0,0,0,2.94-2.94V236.71a2.94,2.94,0,0,0-2.94-2.94"/><g id="圖層_2-2" data-name="圖層 2"><g id="圖層_1-2-2" data-name="圖層 1-2"><path class="cls-3" d="M462.22,126.82l-4.36-4.36-9.62,9.61L430.45,120,412,132.48h-9.68a13.16,13.16,0,0,0-1.57-3.8l6.85-6.85,21.82-4.15,4.06-21.1h13.64V90.41H434.76V78h-6.18V91.61l-21.11,4.06-4.21,21.86-6.84,6.84a13,13,0,0,0-3.79-1.58v-9.67L405.11,94.7l-12-17.8,9.61-9.6-4.37-4.37-8.75,8.75-8.76-8.75-4.37,4.37,9.61,9.6L374,94.7l12.47,18.42v9.67a13,13,0,0,0-3.79,1.58l-6.84-6.84-4.16-21.86-21.11-4.06V78h-6.17V90.41H332v6.17h13.59l4.06,21.1,21.85,4.2,6.85,6.8a13.47,13.47,0,0,0-1.58,3.8H367.1L348.68,120l-17.79,12.06-9.61-9.61-4.36,4.36,8.75,8.77-8.75,8.76,4.36,4.36,9.61-9.61,17.79,12.05,18.42-12.48h9.67a13.29,13.29,0,0,0,1.58,3.79l-6.85,6.84-21.85,4.18-4.06,21.11H332v6.17h12.39v12.41h6.17V179.56l21.11-4.09,4.21-21.87,6.79-6.8a13,13,0,0,0,3.79,1.57V158L374,176.46l12.06,17.79-9.61,9.63,4.37,4.36,8.76-8.75,8.75,8.76,4.37-4.36-9.61-9.62,12.05-17.79L392.65,158v-9.67a13.16,13.16,0,0,0,3.8-1.57l6.84,6.84,4.18,21.83,21.11,4.05v13.65h6.17V180.78h12.4v-6.19h-13.6l-4.1-21.11-21.82-4.2-6.85-6.84a13,13,0,0,0,1.57-3.79H412l18.42,12.48,17.79-12,9.62,9.61,4.36-4.37-8.75-8.73Zm-49.47-25.88,14.17-2.73-2.71,14.2L410,115.14ZM389.57,82.73l8.12,12-8.12,12-8.17-12Zm-34.65,29.68-2.73-14.2,14.2,2.73,2.73,14.2Zm-6.24,31.29-12-8.11,12-8.17,12,8.12Zm17.7,26.56-14.19,2.68,2.73-14.2,14.2-2.73Zm23.18,18.2-8.16-12,8.12-12,8.12,12Zm0-45.83a7,7,0,1,1,7-7,7,7,0,0,1-7,7Zm34.64,16.16,2.72,14.15-14.17-2.71L410,156Zm6.24-15.06-12-8.12,12-8.19,12,8.12Z"/></g></g></g></g></svg>