<svg xmlns="http://www.w3.org/2000/svg" viewBox="0 0 114.92 114.92"><defs><style>.cls-1{fill:#fff;}</style></defs><g id="圖層_2" data-name="圖層 2"><g id="圖層_1-2" data-name="圖層 1"><path class="cls-1" d="M114.92,50.53l-3.45-3.45-7.61,7.6L89.79,45.14,75.22,55H67.57a10.32,10.32,0,0,0-1.24-3l5.41-5.42L89,43.3l3.21-16.69H103V21.73h-9.8v-9.8H88.31V22.68L71.62,25.89,68.29,43.18l-5.41,5.41a10.35,10.35,0,0,0-3-1.25V39.69l9.87-14.57L60.24,11.05l7.6-7.6L64.38,0,57.46,6.92,50.53,0,47.08,3.45l7.6,7.6L45.14,25.12,55,39.69v7.65a10.35,10.35,0,0,0-3,1.25l-5.41-5.41L43.3,25.89,26.61,22.68V11.93H21.73v9.8h-9.8v4.88H22.68L25.89,43.3l17.28,3.32L48.59,52a10.35,10.35,0,0,0-1.25,3H39.69L25.12,45.14,11.05,54.68l-7.6-7.6L0,50.53l6.92,6.93L0,64.39l3.45,3.45,7.6-7.6,14.07,9.53L39.69,59.9h7.65a10.35,10.35,0,0,0,1.25,3l-5.42,5.41L25.89,71.61l-3.21,16.7H11.93v4.88h9.8V103h4.88V92.24L43.3,89l3.33-17.29L52,66.33a10.32,10.32,0,0,0,3,1.24v7.65L45.14,89.79l9.54,14.07-7.6,7.61,3.45,3.45L57.46,108l6.92,6.93,3.46-3.45-7.6-7.61,9.53-14.07L59.9,75.22V67.57a10.32,10.32,0,0,0,3-1.24l5.41,5.41L71.62,89l16.69,3.21V103h4.88v-9.8H103V88.31H92.24L89,71.61,71.74,68.29l-5.41-5.41a10.32,10.32,0,0,0,1.24-3h7.65l14.57,9.87,14.07-9.53,7.61,7.6,3.45-3.45L108,57.46ZM75.79,30.06,87,27.9,84.86,39.13,73.63,41.29ZM57.46,15.66l6.42,9.46-6.42,9.47L51,25.12ZM30.06,39.13,27.9,27.9l11.23,2.16,2.16,11.23ZM25.12,63.88l-9.47-6.42L25.12,51l9.47,6.42Zm14,21L27.9,87l2.16-11.23,11.23-2.16Zm18.33,14.4L51,89.79l6.42-9.46,6.42,9.46Zm0-36.25A5.55,5.55,0,1,1,63,57.46,5.56,5.56,0,0,1,57.46,63Zm27.4,12.78L87,87,75.79,84.86,73.63,73.63Zm4.93-11.91-9.47-6.42L89.79,51l9.47,6.42Z"/></g></g></svg>